<?xml version="1.0" encoding="UTF-8" standalone="no"?>
<!-- Created with Inkscape (http://www.inkscape.org/) -->

<svg
   version="1.1"
   id="svg1"
   width="185.60001"
   height="184"
   viewBox="0 0 185.60001 184"
   sodipodi:docname="LMOS.png"
   xmlns:inkscape="http://www.inkscape.org/namespaces/inkscape"
   xmlns:sodipodi="http://sodipodi.sourceforge.net/DTD/sodipodi-0.dtd"
   xmlns:xlink="http://www.w3.org/1999/xlink"
   xmlns="http://www.w3.org/2000/svg"
   xmlns:svg="http://www.w3.org/2000/svg">
  <defs
     id="defs1">
    <linearGradient
       id="linearGradient149"
       inkscape:collect="always">
      <stop
         style="stop-color:#696c71;stop-opacity:1;"
         offset="0.25441697"
         id="stop148" />
      <stop
         style="stop-color:#475569;stop-opacity:1;"
         offset="1"
         id="stop149" />
    </linearGradient>
    <linearGradient
       id="linearGradient146"
       inkscape:collect="always">
      <stop
         style="stop-color:#334155;stop-opacity:1;"
         offset="0.25441697"
         id="stop147" />
      <stop
         style="stop-color:#1e293b;stop-opacity:1;"
         offset="1"
         id="stop146" />
    </linearGradient>
    <linearGradient
       inkscape:collect="always"
       xlink:href="#linearGradient146"
       id="linearGradient147"
       x1="10.746292"
       y1="91.343597"
       x2="174.16425"
       y2="91.343597"
       gradientUnits="userSpaceOnUse"
       gradientTransform="matrix(1.0213128,0,0,1.0213128,-1.970484,-1.9467912)" />
    <linearGradient
       inkscape:collect="always"
       xlink:href="#linearGradient149"
       id="linearGradient148"
       gradientUnits="userSpaceOnUse"
       gradientTransform="matrix(1.0799231,0,0,1.0799231,-7.0005214,-7.2295493)"
       x1="10.746292"
       y1="91.343597"
       x2="174.16425"
       y2="91.343597" />
  </defs>
  <sodipodi:namedview
     id="namedview1"
     pagecolor="#ffffff"
     bordercolor="#000000"
     borderopacity="0.25"
     inkscape:showpageshadow="2"
     inkscape:pageopacity="0.0"
     inkscape:pagecheckerboard="0"
     inkscape:deskcolor="#d1d1d1"
     showgrid="false" />
  <g
     inkscape:groupmode="layer"
     inkscape:label="Image"
     id="g1">
    <circle
       style="fill:url(#linearGradient148);fill-rule:nonzero;stroke-width:19.5549"
       id="path145-2"
       cx="92.844063"
       cy="91.414513"
       r="88.23941" />
    <circle
       style="fill:url(#linearGradient147);fill-rule:nonzero;stroke-width:18.4936"
       id="path145"
       cx="92.455269"
       cy="91.343597"
       r="83.450424" />
    <g
       id="g145">
      <path
         style="fill:#60a5fa;fill-opacity:1;fill-rule:nonzero"
         d="m 78.99809,155.06559 c -1.599358,0 -2.753119,-0.14823 -2.988889,-0.384 -0.2112,-0.2112 -0.384,-0.28078 -0.384,-0.15461 0,0.12616 -0.693045,-0.1218 -1.540101,-0.55104 -0.847055,-0.42924 -1.725055,-1.00329 -1.951112,-1.27567 -0.355092,-0.42786 -0.168934,-0.60229 1.368272,-1.28212 1.366284,-0.60423 1.830104,-0.98937 1.998233,-1.65925 0.120423,-0.4798 0.07504,-1.10208 -0.100851,-1.38284 -0.175892,-0.28076 -0.645739,-0.55867 -1.044106,-0.61758 -0.398367,-0.0589 -1.594746,0.28353 -2.65862,0.76097 -1.130178,0.50719 -2.753298,0.93381 -3.904336,1.0262 -1.083511,0.087 -2.727541,-0.004 -3.653401,-0.20288 -0.925859,-0.19856 -2.492514,-0.73113 -3.481456,-1.18348 -0.988941,-0.45235 -2.237826,-1.1905 -2.775299,-1.64032 -0.537473,-0.44983 -1.534025,-1.55486 -2.214559,-2.45563 -0.680535,-0.90076 -1.390004,-1.99775 -1.576599,-2.43775 -0.186595,-0.44 -0.570564,-1.52 -0.853266,-2.4 -0.514003,-1.6 -0.514003,-1.6 -2.794684,-1.80475 -1.254374,-0.11261 -3.015436,-0.44879 -3.913471,-0.74707 -0.898035,-0.29828 -2.478211,-1.10687 -3.511502,-1.79688 -1.033291,-0.69 -2.376872,-1.86582 -2.985737,-2.61293 -0.608864,-0.7471 -1.484725,-2.03873 -1.946357,-2.87028 -0.461633,-0.83155 -1.060218,-2.36433 -1.330191,-3.40619 -0.269972,-1.04186 -0.490858,-2.79025 -0.490858,-3.88533 0,-1.99104 0,-1.99104 1.2,-0.9083 0.66,0.59551 1.704,1.39345 2.32,1.7732 0.616,0.37975 2.22539,1.06127 3.576421,1.51449 1.351032,0.45322 3.007032,0.82624 3.68,0.82894 0.672969,0.003 1.400847,0.1175 1.617507,0.25513 0.216661,0.13763 0.864661,0.90858 1.440001,1.71322 0.575339,0.80465 1.478071,1.82044 2.006071,2.25733 0.528,0.43688 1.274533,0.95973 1.658963,1.16188 0.384429,0.20214 1.06511,0.36754 1.512623,0.36754 0.50183,0 1.003227,-0.28932 1.308297,-0.75491 0.27205,-0.4152 0.409653,-0.9552 0.305784,-1.2 -0.103869,-0.2448 -1.047329,-1.05875 -2.096578,-1.80877 -1.049249,-0.75002 -2.047532,-1.7314 -2.218407,-2.18083 -0.170875,-0.44944 -0.310682,-1.74378 -0.310682,-2.87632 0,-1.67726 -0.0953,-2.05917 -0.51381,-2.05917 -0.282595,0 -1.398595,0.2311 -2.48,0.51355 -1.234699,0.3225 -2.683998,0.45737 -3.895602,0.36252 -1.085542,-0.085 -2.535959,-0.46048 -3.316214,-0.85854 -0.762741,-0.38912 -1.999824,-1.33824 -2.749074,-2.10916 -0.749249,-0.77093 -1.661753,-2.0388 -2.027786,-2.8175 -0.366034,-0.7787 -0.763267,-2.15271 -0.882741,-3.05335 -0.209963,-1.58278 -0.251382,-1.63752 -1.238995,-1.63752 -0.561973,0 -1.678633,-0.22382 -2.481466,-0.49737 -0.802832,-0.27355 -2.021071,-0.97789 -2.707197,-1.56518 -0.686126,-0.5873 -1.626242,-1.76749 -2.089147,-2.62264 -0.462904,-0.85515 -1.015784,-2.44836 -1.22862,-3.54048 -0.233459,-1.19793 -0.300009,-2.797765 -0.167755,-4.032732 0.120572,-1.125883 0.620173,-3.20498 1.110224,-4.620217 0.490051,-1.415236 1.549502,-3.515148 2.354334,-4.666472 1.463332,-2.093315 1.463332,-2.093315 0.361424,-3.634116 -0.60605,-0.847441 -1.396567,-2.476801 -1.756705,-3.620801 -0.396005,-1.257932 -0.666117,-3.02854 -0.683439,-4.48 -0.01697,-1.421803 0.199193,-3.182558 0.530349,-4.32 0.307445,-1.056 1.004142,-2.758998 1.548216,-3.78444 0.579296,-1.091828 1.810115,-2.616797 2.970168,-3.68 1.672553,-1.532917 2.018319,-2.036966 2.221026,-3.237762 0.132045,-0.782211 0.504193,-2.189855 0.826996,-3.128096 0.322802,-0.938241 1.049518,-2.573829 1.614924,-3.63464 0.565406,-1.06081 1.795944,-2.630593 2.734529,-3.488406 0.938584,-0.857814 2.479101,-1.937651 3.423371,-2.39964 1.711388,-0.837304 1.717426,-0.845522 1.896585,-2.581398 0.105489,-1.022099 0.642326,-2.700601 1.299639,-4.063519 0.615949,-1.277155 1.636397,-2.923263 2.267661,-3.658019 0.631264,-0.734756 1.862238,-1.860401 2.735498,-2.501432 0.87326,-0.641032 2.419314,-1.465452 3.435676,-1.832045 1.201554,-0.43339 3.191103,-0.759642 5.687931,-0.932722 2.112001,-0.146404 4.469144,-0.35758 5.238097,-0.469279 0.901847,-0.131005 1.477592,-0.07446 1.622062,0.159294 0.138337,0.223834 0.629234,-0.201942 1.283964,-1.113636 0.582999,-0.811811 1.829302,-1.968138 2.769563,-2.569616 0.94026,-0.601477 2.592336,-1.319751 3.67128,-1.596163 1.607,-0.411695 2.330364,-0.438371 4.000496,-0.14753 1.12133,0.195271 2.691616,0.634876 3.489524,0.976899 0.797909,0.342024 2.192062,1.310426 3.098119,2.152006 0.906056,0.841579 2.056767,2.170336 2.557135,2.952794 0.835173,1.306013 0.90976,1.670629 0.90976,4.447322 0,3.024673 0,3.024673 -0.72,1.964925 -0.396,-0.582862 -1.380302,-1.512992 -2.18734,-2.066955 -0.807038,-0.553963 -2.29844,-1.268619 -3.314227,-1.588123 -1.320981,-0.415499 -2.452203,-0.537168 -3.972659,-0.427279 -1.509305,0.109083 -2.682567,0.435292 -4.045773,1.124871 -1.078465,0.545543 -2.634626,1.72692 -3.550451,2.695365 -0.896748,0.948272 -1.793109,2.028061 -1.991914,2.399531 -0.361463,0.6754 -0.361463,0.6754 -1.729549,-0.008 -0.986345,-0.492676 -1.948476,-0.680443 -3.448086,-0.672918 -1.407476,0.0071 -2.545594,0.224496 -3.520001,0.672486 -0.792,0.364128 -1.856609,1.079207 -2.365799,1.589065 -0.509189,0.509858 -1.190027,1.503014 -1.512972,2.207014 -0.367506,0.801139 -0.589802,2.032065 -0.594201,3.290278 -0.0039,1.105653 0.199483,2.504528 0.451885,3.108611 0.289121,0.691964 0.748399,1.170989 1.241335,1.294708 0.430332,0.108006 1.181297,0.149132 1.668811,0.09139 0.487515,-0.05774 1.043906,-0.356556 1.236426,-0.664031 0.28372,-0.45313 0.18374,-0.713243 -0.527724,-1.37295 -0.605987,-0.561902 -0.877607,-1.131902 -0.877263,-1.840955 2.73e-4,-0.564878 0.252273,-1.52818 0.56,-2.140671 0.307726,-0.612492 1.048798,-1.440492 1.646825,-1.84 0.693305,-0.463158 1.567474,-0.726379 2.412339,-0.726379 0.728759,0 1.889911,0.288 2.580339,0.64 0.690427,0.352 1.42257,0.64 1.626983,0.64 0.204414,0 1.007228,-0.281141 1.784031,-0.624758 1.081599,-0.478443 1.545354,-0.926173 1.980201,-1.911776 0.312306,-0.707859 1.155307,-1.789875 1.873334,-2.404479 0.718028,-0.614605 2.01942,-1.354588 2.891984,-1.644407 1.013986,-0.336792 2.23909,-0.478873 3.394974,-0.393731 1.000286,0.07368 2.595029,0.496125 3.568493,0.945287 1.007248,0.464749 2.546969,1.601471 3.6,2.657752 1.839999,1.845677 1.839999,1.845677 1.839999,9.337691 0,7.492015 0,7.492015 -1.726421,9.274447 -1.531166,1.580842 -1.802757,1.741579 -2.40137,1.421211 -0.371222,-0.198672 -1.170301,-1.399825 -1.775731,-2.669229 -0.60543,-1.269405 -1.648814,-2.870868 -2.31863,-3.558808 -0.669816,-0.68794 -2.009847,-1.62394 -2.977847,-2.08 -1.41843,-0.668274 -2.225777,-0.826687 -4.16,-0.816252 -1.793814,0.0097 -2.820434,0.19981 -4.064575,0.75277 -0.973671,0.43275 -2.320409,1.433271 -3.244662,2.410532 -0.869048,0.91889 -1.886581,2.271486 -2.261184,3.005769 -0.681097,1.33506 -0.681097,1.33506 -2.515338,0.09709 -1.008833,-0.680882 -2.394615,-1.418116 -3.079515,-1.638298 -0.743591,-0.23905 -2.116968,-0.337961 -3.408989,-0.245518 -2.124415,0.152002 -2.16696,0.139646 -2.342308,-0.680241 -0.09823,-0.45928 -0.455712,-1.279456 -0.794415,-1.822612 -0.341319,-0.547352 -1.278003,-1.298819 -2.101357,-1.685841 -0.817043,-0.384056 -2.347299,-0.788355 -3.400568,-0.898444 -1.581033,-0.16525 -2.025964,-0.09977 -2.551062,0.375437 -0.349816,0.316578 -0.636028,0.933404 -0.636028,1.370723 0,0.43732 0.252,0.986422 0.56,1.220227 0.308,0.233806 1.294705,0.42968 2.192677,0.435278 1.156731,0.0072 1.949646,0.223111 2.72,0.740623 0.888491,0.596874 1.104029,0.962601 1.178682,2 0.07638,1.061406 -0.119548,1.549178 -1.195019,2.975057 -0.724684,0.960798 -1.568008,2.617313 -1.931359,3.793707 -0.35474,1.148512 -0.644981,2.29178 -0.644981,2.540594 0,0.339842 -0.21893,0.391164 -0.88,0.206293 -0.484,-0.135354 -1.982677,-0.245483 -3.330393,-0.244732 -2.224867,0.0012 -2.574912,0.09157 -3.803308,0.981411 -0.744102,0.539025 -1.669787,1.546411 -2.057076,2.238635 -0.38729,0.692224 -0.805618,1.666835 -0.92962,2.165803 -0.124001,0.498967 -0.137936,1.182967 -0.03097,1.52 0.120644,0.380117 0.486935,0.612786 0.964709,0.612786 0.525685,0 0.922097,-0.2937 1.248596,-0.92508 0.263108,-0.508794 1.077071,-1.365364 1.808807,-1.90349 0.731737,-0.538125 1.732115,-1.066633 2.223064,-1.174464 0.490948,-0.10783 1.508072,-0.03033 2.260276,0.172213 0.975454,0.262663 1.98834,0.9675 3.532137,2.45791 1.82827,1.765046 2.2896,2.058241 2.969897,1.887498 0.442972,-0.111179 0.964079,-0.498632 1.158016,-0.861006 0.296521,-0.554055 0.158007,-0.941621 -0.870763,-2.436405 -1.119289,-1.626305 -1.222724,-1.9579 -1.215714,-3.897359 0.0063,-1.735615 0.180267,-2.438292 0.96,-3.876983 0.670047,-1.236309 1.425524,-2.066282 2.548678,-2.8 1.317973,-0.860986 1.906911,-1.042834 3.377351,-1.042834 1.43841,0 2.079158,0.18908 3.330938,0.982935 0.85246,0.540615 1.811977,1.296615 2.132259,1.68 0.320282,0.383386 0.746389,1.177837 0.946905,1.765448 0.258635,0.757924 0.517371,1.02397 0.890391,0.915546 0.289199,-0.08406 1.188914,-0.337108 1.999367,-0.562329 1.473551,-0.409493 1.473551,-0.409493 1.825687,-2.303008 0.193675,-1.041434 0.731196,-2.540332 1.194491,-3.330885 0.490382,-0.836774 1.458509,-1.828123 2.316963,-2.372538 1.08871,-0.690439 1.8667,-0.935169 2.972879,-0.935169 0.824049,0 1.985364,0.20352 2.580699,0.452267 0.595336,0.248748 1.48549,0.825813 1.978121,1.282367 0.49263,0.456555 1.186503,1.487527 1.541939,2.29105 0.355437,0.803523 0.575245,1.645983 0.488463,1.872133 -0.08678,0.22615 -0.566162,0.495348 -1.065289,0.598217 -0.499126,0.102869 -1.585582,0.620419 -2.414346,1.150109 -0.828764,0.529691 -1.948201,1.57235 -2.487638,2.317021 -0.539437,0.744671 -1.228481,2.051324 -1.531209,2.903674 -0.530863,1.49468 -0.584583,1.540908 -1.512362,1.301445 -0.529072,-0.136556 -1.969948,-0.240824 -3.201948,-0.231708 -1.645741,0.01218 -2.589133,0.198962 -3.556021,0.704067 -0.723812,0.378121 -1.959953,1.4037 -2.746982,2.279065 -0.980515,1.090569 -1.649112,2.256108 -2.123979,3.702652 -0.38116,1.161094 -0.693019,2.321313 -0.693019,2.578264 0,0.256951 -0.396,0.555311 -0.88,0.663023 -0.484,0.107711 -1.168,0.271613 -1.52,0.364225 -0.352,0.09261 -1.288,0.460178 -2.08,0.816812 -0.792,0.356634 -2.039536,0.716798 -2.772303,0.800366 -0.798232,0.09103 -2.059587,-0.07682 -3.1466,-0.418726 -1.464389,-0.460607 -2.098659,-0.900041 -3.288729,-2.278495 -0.913387,-1.057972 -1.731268,-1.707828 -2.1494,-1.707828 -0.371233,0 -0.847768,0.1728 -1.058968,0.384 -0.2112,0.2112 -0.384,0.81546 -0.384,1.3428 0,0.52734 0.376418,1.501971 0.836485,2.165848 0.460067,0.663876 1.325926,1.580363 1.924131,2.036636 0.598206,0.456274 1.913788,1.19416 2.923515,1.639747 1.009728,0.445587 1.860063,0.833034 1.889633,0.860994 0.02957,0.02796 -0.150429,0.838024 -0.4,1.800143 -0.24957,0.962118 -0.453764,2.381331 -0.453764,3.153805 0,1.166319 -0.08839,1.370582 -0.521201,1.204496 -0.28666,-0.110002 -1.128225,-0.352854 -1.870143,-0.539671 -0.936231,-0.235745 -1.892775,-0.239134 -3.126453,-0.01108 -0.97763,0.180725 -2.431371,0.635942 -3.230536,1.011594 -0.799164,0.375651 -2.096359,1.370778 -2.882655,2.211392 -0.786296,0.840615 -1.739558,2.135896 -2.118358,2.878402 -0.378801,0.74251 -0.644162,1.64729 -0.589691,2.01062 0.05447,0.36333 0.414026,0.77631 0.799014,0.91772 0.599032,0.22003 0.817622,0.0564 1.515765,-1.13493 0.448684,-0.76562 1.357694,-1.820906 2.020023,-2.345076 0.662329,-0.524178 1.761821,-1.185788 2.443315,-1.470246 0.681493,-0.284458 1.977493,-0.514035 2.88,-0.510169 0.945978,0.0041 2.241332,0.279413 3.058631,0.650192 0.779741,0.353741 2.116461,1.296763 2.970487,2.095599 0.854027,0.79884 2.223143,1.74898 3.042481,2.11141 1.30395,0.5768 1.871238,0.63285 4.549513,0.44949 2.298192,-0.15734 3.462701,-0.0895 4.678438,0.27257 0.890246,0.26513 2.454389,1.0675 3.475872,1.78306 1.021483,0.71555 2.249529,1.37946 2.72899,1.47536 0.573892,0.11477 1.053649,-0.008 1.404128,-0.35804 0.292809,-0.29281 0.532381,-0.85457 0.532381,-1.24837 0,-0.39379 -0.18,-0.93172 -0.4,-1.1954 -0.22,-0.26368 -0.976,-0.88908 -1.68,-1.38977 -0.704,-0.5007 -1.82,-1.4217 -2.48,-2.04669 -0.979918,-0.92792 -1.2,-1.361061 -1.2,-2.361694 0,-0.977993 -0.145353,-1.279485 -0.72,-1.493432 -0.396,-0.147436 -1.004762,-0.163498 -1.352803,-0.03569 -0.348041,0.127803 -0.857337,0.637486 -1.131768,1.132627 -0.274431,0.495141 -0.866136,1.17439 -1.314901,1.509441 -0.448765,0.335051 -1.37947,0.678176 -2.068233,0.762506 -0.837814,0.10257 -1.61546,-0.0376 -2.349543,-0.423437 -0.603486,-0.317216 -1.504939,-1.087439 -2.00323,-1.711607 -0.534485,-0.669506 -1.063018,-1.883519 -1.288948,-2.96065 -0.300705,-1.433619 -0.297618,-2.144905 0.01437,-3.311397 0.218535,-0.817079 0.690363,-1.897116 1.048508,-2.400083 0.358144,-0.502967 1.169921,-1.310155 1.803949,-1.793752 1.008673,-0.769352 1.43849,-0.879267 3.438337,-0.879267 1.958266,0 2.569673,0.148928 4.269587,1.04 1.091216,0.572 2.241124,1.04 2.555351,1.04 0.314228,0 0.744123,-0.1728 0.955323,-0.384 0.2112,-0.2112 0.384,-0.788609 0.384,-1.283132 0,-0.494523 -0.252,-1.104393 -0.56,-1.355268 -0.308,-0.250874 -1.206782,-0.939862 -1.997294,-1.531084 -0.790511,-0.591222 -1.57621,-1.469954 -1.745996,-1.95274 -0.221521,-0.629892 -0.1771,-1.254948 0.157293,-2.213274 0.316943,-0.908316 0.880998,-1.62629 1.763448,-2.244657 0.899379,-0.630231 1.85097,-0.966304 3.101558,-1.095376 1.270247,-0.131101 2.306699,-0.02298 3.502549,0.365368 0.934143,0.303363 2.156834,0.898652 2.717091,1.322866 0.560257,0.424213 1.226625,0.771297 1.480818,0.771297 0.254192,0 0.632208,-0.204886 0.840035,-0.455302 0.257067,-0.309747 0.307373,-1.07838 0.15736,-2.404325 -0.16709,-1.476879 -0.08957,-2.291883 0.320012,-3.364354 0.297286,-0.778432 1.099154,-1.920023 1.781929,-2.536869 0.682776,-0.616846 1.816028,-1.293699 2.518338,-1.504116 0.993613,-0.297693 1.619271,-0.296527 2.819894,0.0053 0.848631,0.213309 2.013064,0.745936 2.58763,1.183615 0.574565,0.437679 1.438565,1.542851 1.919999,2.455937 0.775851,1.471476 0.875335,2.005661 0.875335,4.700157 0,2.696265 -0.103387,3.250552 -0.914361,4.902128 -0.502898,1.02417 -1.478843,2.438012 -2.168766,3.141871 -0.689923,0.703859 -1.93446,1.584458 -2.765638,1.956886 -1.221409,0.54728 -2.085355,0.669328 -4.504873,0.636396 -2.993639,-0.04075 -2.993639,-0.04075 -2.841601,0.980986 0.08362,0.561953 -0.04368,1.669733 -0.282898,2.461733 -0.239214,0.792 -0.436493,2.490288 -0.438398,3.773974 -0.0028,1.903422 0.210482,2.906946 1.156316,5.439999 0.637879,1.708319 1.443157,3.712539 1.789506,4.453829 0.34635,0.74129 0.89901,1.43327 1.228133,1.53773 0.329124,0.10446 0.890146,0.0338 1.246715,-0.15704 0.35657,-0.19083 0.738458,-0.70615 0.84864,-1.14515 0.138062,-0.55008 -0.20534,-1.77567 -1.104803,-3.943 -0.717823,-1.729651 -1.397579,-3.722943 -1.510567,-4.429536 -0.149539,-0.935162 -0.03302,-1.674487 0.428242,-2.717247 0.348523,-0.787893 1.106634,-1.769307 1.684693,-2.180921 0.665908,-0.474168 1.658157,-0.798738 2.707996,-0.885798 1.139573,-0.0945 1.975064,0.02708 2.675632,0.389355 0.560258,0.289721 1.447811,1.119205 1.972341,1.843297 0.953691,1.316533 0.953691,1.316533 0.953439,7.74852 -2.51e-4,6.40395 -0.0042,6.44036 -0.910028,8.35199 -0.500377,1.056 -1.502309,2.45424 -2.226517,3.10721 -0.830493,0.7488 -1.997304,1.38506 -3.159675,1.72297 -1.405985,0.40873 -2.49027,0.48785 -4.57323,0.33371 -1.501663,-0.11113 -3.450297,-0.39764 -4.330297,-0.63669 -0.88,-0.23905 -2.582084,-0.82938 -3.782408,-1.31185 -1.200325,-0.48246 -2.250971,-0.80864 -2.33477,-0.72484 -0.0838,0.0838 0.342357,1.21371 0.947012,2.51092 0.604655,1.29721 1.331302,3.0476 1.61477,3.88975 0.283467,0.84215 0.515396,1.9325 0.515396,2.423 0,0.49049 -0.223429,1.54754 -0.496509,2.34898 -0.273431,0.80248 -1.028244,1.96506 -1.68,2.5876 -0.65092,0.62173 -1.768408,1.63994 -2.483307,2.26269 -0.714899,0.62275 -1.671996,1.82398 -2.126882,2.66941 -0.454887,0.84543 -1.008885,2.36514 -1.231106,3.37714 -0.325483,1.48225 -0.325391,2.19774 4.71e-4,3.68 0.222481,1.012 0.706472,2.38455 1.075535,3.05012 0.393442,0.70953 0.995719,1.29161 1.455939,1.40712 0.431704,0.10835 1.014628,0.0533 1.295387,-0.12239 0.28076,-0.17567 0.555274,-0.76856 0.610032,-1.31754 0.05476,-0.54898 -0.161242,-1.54246 -0.48,-2.20773 -0.347419,-0.72509 -0.559839,-1.82832 -0.530325,-2.75431 0.03436,-1.07801 0.324414,-1.98901 0.96,-3.01516 0.58325,-0.94165 1.428595,-1.7481 2.350765,-2.24259 1.154077,-0.61885 1.757692,-0.74051 3.04,-0.61273 0.954066,0.0951 2.729901,0.70331 4.398802,1.50664 2.569035,1.23661 2.878045,1.31438 3.76407,0.94738 0.560852,-0.23232 1.045057,-0.71773 1.15571,-1.15861 0.104742,-0.41732 0.106952,-0.97634 0.0049,-1.24226 -0.102042,-0.26591 -0.585572,-0.64157 -1.074511,-0.83478 -0.48894,-0.19322 -1.731334,-0.72931 -2.760877,-1.19132 -1.029543,-0.462 -2.275752,-1.29998 -2.769354,-1.86216 -0.493601,-0.56218 -0.995891,-1.47031 -1.116198,-2.01806 -0.160001,-0.72849 -0.01785,-1.40038 0.529354,-2.50208 0.529133,-1.06532 1.19715,-1.78028 2.282325,-2.4427 1.027375,-0.62715 2.103084,-0.98372 3.256122,-1.07934 0.947039,-0.0785 2.430935,0.0273 3.297545,0.2352 0.86661,0.2079 2.106312,0.81541 2.754895,1.35002 0.648582,0.53462 1.534282,1.67268 1.968223,2.52902 0.788983,1.55698 0.788983,1.55698 0.788983,13.23561 0,10.99701 -0.03836,11.78116 -0.6572,13.43517 -0.361461,0.96608 -1.303342,2.47519 -2.093071,3.35356 -0.85271,0.94841 -2.231104,1.99441 -3.39391,2.57547 -1.702539,0.85077 -2.297947,0.97845 -4.562929,0.97845 z m -6.092889,-1.92 c 0.088,0 0.16,-0.072 0.16,-0.16 0,-0.088 -0.072,-0.16 -0.16,-0.16 -0.088,0 -0.16,0.072 -0.16,0.16 0,0.088 0.072,0.16 0.16,0.16 z m 8.916012,-8.64 c 0.826703,0 1.143336,-0.18014 1.432623,-0.81506 0.204251,-0.44828 0.371365,-1.05748 0.371365,-1.35377 0,-0.29629 -0.756,-2.14938 -1.68,-4.11798 -1.144022,-2.43736 -1.918004,-3.69156 -2.426015,-3.93122 -0.559002,-0.26373 -0.960092,-0.24968 -1.6,0.056 -0.469692,0.2244 -0.898363,0.71815 -0.952604,1.09724 -0.05424,0.37908 0.34272,1.56353 0.882134,2.6321 0.539414,1.06857 1.208945,2.62906 1.487847,3.46776 0.278902,0.83869 0.713261,1.8489 0.965243,2.2449 0.324418,0.50983 0.767924,0.72 1.519407,0.72 z m -21.545621,-24 c 0.332572,0 0.898287,-0.31516 1.257143,-0.70034 0.358856,-0.38519 0.652466,-0.88729 0.652466,-1.11579 0,-0.2285 -0.612,-1.43984 -1.360001,-2.69187 -0.748,-1.25203 -1.828341,-2.82521 -2.400758,-3.49596 -0.572417,-0.67076 -1.787116,-1.59148 -2.69933,-2.04605 -1.608963,-0.80178 -1.783613,-0.82038 -5.839241,-0.62192 -2.299369,0.11253 -4.504671,0.32418 -4.900671,0.47034 -0.514021,0.18972 -0.72,0.52434 -0.72,1.16967 0,0.49715 0.1728,1.07672 0.384,1.28792 0.24964,0.24964 1.565252,0.38523 3.76,0.38752 1.8568,0.002 3.917387,0.093 4.579082,0.20237 0.743149,0.12283 1.736294,0.6682 2.597845,1.42657 0.76712,0.67524 1.760944,2.0011 2.208498,2.94635 0.447554,0.94525 1.052809,1.95771 1.345012,2.24991 0.292203,0.2922 0.803382,0.53128 1.135955,0.53128 z"
         id="path144"
         sodipodi:nodetypes="ssssssssssscssssssssssssssscsssssssssssssssssssssssssssssssssssssssssssssssssssssssssssccssscsssssssssssssssssssssssscsssssssssssssssssssscssssssssssssscsssssssssssssssssssssssssssssssssssssssssssssssssssscssssssscssssssssssssssssssssssssssssssssssscssssssssscsssssssssssssssssssssssssssssssssssssssssssssssscsssssssssssssssssssssssscssssssssssscsssss" />
      <path
         d="m 109.01359,156.89959 c -1.90553,-0.007 -3.44831,-0.20249 -4.5206,-0.57317 -0.89531,-0.30949 -2.37088,-1.03953 -3.27905,-1.6223 -0.90817,-0.58277 -2.082549,-1.60418 -2.609729,-2.26981 -0.52719,-0.66563 -1.31822,-1.9829 -1.75783,-2.92726 -0.79848,-1.71524 -0.79931,-1.72736 -0.80243,-11.71701 l -0.003,-10 h 17.105789 c 17.10579,0 17.10579,0 18.28465,-0.8 0.64838,-0.44 1.41077,-0.79946 1.69421,-0.79881 0.28344,6.6e-4 0.98694,0.28873 1.56332,0.64015 0.57639,0.35142 1.19794,1.03339 1.38123,1.51547 0.18329,0.48209 0.24889,1.32626 0.14577,1.87592 -0.10312,0.54967 -0.48779,1.27117 -0.85483,1.60333 -0.43699,0.39548 -1.14388,0.60394 -2.04796,0.60394 -1.01296,0 -1.5961,-0.20244 -2.1898,-0.76019 -0.44505,-0.4181 -0.90009,-1.1741 -1.01121,-1.68 -0.20202,-0.91981 -0.20202,-0.91981 -6.2566,-0.91981 -3.33001,0 -6.05457,0.0836 -6.05457,0.18588 0,0.10224 2.196,2.49286 4.88,5.31249 4.88,5.1266 4.88,5.1266 7.28,4.95663 1.32,-0.0935 3.08316,-0.40935 3.91814,-0.70193 0.83498,-0.29258 2.2367,-1.17801 3.11492,-1.96761 1.04804,-0.94227 1.98654,-2.22428 2.73096,-3.73055 0.81144,-1.64185 1.2413,-3.08036 1.51056,-5.05505 0.37636,-2.76013 0.37636,-2.76013 2.57098,-2.9641 1.20705,-0.11218 2.72362,-0.42499 3.37017,-0.69514 0.64654,-0.27014 1.49788,-0.79399 1.89185,-1.16411 0.39397,-0.37012 0.95551,-1.29926 1.24786,-2.06477 0.3624,-0.94893 0.46908,-1.84752 0.33526,-2.82386 -0.10796,-0.78762 -0.63153,-2.20324 -1.16349,-3.14583 -0.53197,-0.94259 -0.96721,-1.81202 -0.96721,-1.93207 0,-0.12005 0.80794,-0.60081 1.79543,-1.06836 1.19974,-0.56805 2.20065,-1.36273 3.01676,-2.39519 0.67173,-0.84981 1.53328,-2.3734 1.91457,-3.38577 0.58294,-1.54779 0.67174,-2.32436 0.55812,-4.88066 -0.1047,-2.3559 -0.3281,-3.503994 -0.99272,-5.10187 -0.47168,-1.134026 -1.45422,-2.977588 -2.18342,-4.096804 -1.32581,-2.034938 -1.32581,-2.034938 -0.20747,-3.218134 0.61509,-0.650758 1.41722,-1.620982 1.78251,-2.156054 0.3653,-0.535072 0.97976,-1.903072 1.36546,-3.04 0.54838,-1.616417 0.66422,-2.520757 0.53131,-4.147539 -0.0935,-1.144219 -0.48369,-2.918907 -0.86714,-3.943753 -0.38344,-1.024845 -1.36682,-2.739745 -2.18529,-3.810888 -1.06224,-1.390173 -2.08339,-2.28355 -3.56812,-3.121651 -1.52269,-0.859527 -2.06348,-1.338792 -2.01834,-1.788714 0.0339,-0.338029 -0.16404,-1.622597 -0.43988,-2.854597 -0.27585,-1.232 -0.83083,-2.888 -1.23329,-3.68 -0.40245,-0.792 -1.04028,-1.766323 -1.41739,-2.165161 -0.37711,-0.398839 -2.0956,-1.640122 -3.81888,-2.758408 -3.13322,-2.033243 -3.13322,-2.033243 -3.33057,-3.699533 -0.10854,-0.91646 -0.54976,-2.43607 -0.98049,-3.37691 -0.43073,-0.94083 -1.36286,-2.47772 -2.0714,-3.4153 -0.70854,-0.93758 -1.99451,-2.24258 -2.85772,-2.89999 -0.8632,-0.65742 -2.20541,-1.47662 -2.98268,-1.82044 -0.77727,-0.34382 -2.33418,-0.77345 -3.4598,-0.95473 -1.40833,-0.2268 -2.79172,-0.22595 -4.43586,0.003 -1.31409,0.18277 -2.69626,0.45364 -3.07148,0.60192 -0.37522,0.14829 -2.59022,2.19989 -4.92222,4.55912 -2.332,2.35924 -4.24,4.35782 -4.24,4.44131 0,0.0835 3.07703,0.19355 6.83784,0.24458 6.83784,0.0928 6.83784,0.0928 7.5486,-1.05725 0.39092,-0.63251 0.97642,-1.29221 1.30112,-1.46598 0.3247,-0.17377 0.88105,-0.31595 1.23634,-0.31595 0.35529,0 1.02356,0.17203 1.48504,0.3823 0.46148,0.21026 1.04426,0.77911 1.29506,1.26411 0.2508,0.48499 0.456,1.23791 0.456,1.67314 0,0.43524 -0.35842,1.2173 -0.79649,1.73792 -0.43807,0.52062 -1.18679,1.02119 -1.66381,1.11237 -0.47702,0.0912 -1.2346,0.0317 -1.68351,-0.13214 -0.44893,-0.16384 -1.10422,-0.64008 -1.45622,-1.05828 -0.63558,-0.75511 -0.69268,-0.76112 -8.26435,-0.86988 -7.62435,-0.10952 -7.62435,-0.10952 -8.72,1.08578 -1.09565,1.1953 -1.09565,1.1953 -1.09565,8.368393 0,7.173089 0,7.173089 -2.43242,9.444699 -2.432414,2.27161 -2.432414,2.27161 9.87279,2.27161 h 12.3052 l 4.17511,4.274764 c 3.96219,4.056766 4.25018,4.283226 5.64704,4.440673 0.80956,0.09125 1.71032,0.363605 2.00168,0.605235 0.29136,0.241631 0.72023,0.895033 0.95305,1.452006 0.3211,0.768173 0.33939,1.253407 0.0757,2.009723 -0.19165,0.549776 -0.75553,1.208009 -1.25699,1.467322 -0.50018,0.258652 -1.21171,0.470277 -1.58119,0.470277 -0.36948,0 -1.09237,-0.21749 -1.60641,-0.483312 -0.51404,-0.265822 -1.08289,-0.760355 -1.26411,-1.098963 -0.18122,-0.338608 -0.32948,-0.915071 -0.32948,-1.28103 0,-0.365958 0.17086,-0.938971 0.37969,-1.273361 0.3368,-0.539301 -0.0661,-1.072012 -3.56687,-4.715658 -3.94655,-4.107676 -3.94655,-4.107676 -15.97969,-4.267676 -6.61822,-0.088 -12.390214,-0.04299 -12.826619,0.10002 -0.43642,0.14301 -0.90221,0.43101 -1.0351,0.64 -0.13289,0.208989 -0.24382,2.35998 -0.24651,4.77998 l -0.005,4.4 h 8.791779 c 8.79178,0 8.79178,0 9.256,-0.897701 0.25532,-0.493735 0.84179,-1.069735 1.30327,-1.28 0.46148,-0.210264 1.11351,-0.382299 1.44894,-0.382299 0.33544,0 0.94843,0.154248 1.36219,0.342772 0.41377,0.188525 0.94118,0.645208 1.17203,1.01485 0.23084,0.369643 0.41164,1.259395 0.40178,1.977228 -0.0137,0.997264 -0.21536,1.474999 -0.85481,2.02515 -0.49133,0.422713 -1.25892,0.719506 -1.85903,0.718804 -0.56219,-6.58e-4 -1.49016,-0.286542 -2.06216,-0.635297 -0.572,-0.348755 -1.04,-0.852217 -1.04,-1.118804 0,-0.422365 -1.25788,-0.484703 -9.78062,-0.484703 h -9.780629 l 0.10063,-5.639161 c 0.10063,-5.639162 0.10063,-5.639162 3.540615,-8.939636 3.440004,-3.300475 3.440004,-3.300475 3.440004,-10.531702 0,-7.231223 0,-7.231223 5.74631,-13.220363 5.7463,-5.98914 5.7463,-5.98914 5.56007,-7.90914 -0.10244,-1.056 -0.389,-2.3634 -0.63683,-2.90532 -0.24782,-0.54193 -0.99253,-1.51453 -1.6549,-2.16132 -0.69736,-0.68095 -1.96928,-1.44485 -3.02149,-1.81468 -0.99944,-0.35127 -2.60736,-0.63868 -3.57316,-0.63868 -0.99649,0 -2.52749,0.28866 -3.53973,0.66738 -1.3463,0.50372 -2.335734,1.22821 -4.034609,2.95426 -2.25088,2.28687 -2.25088,2.28687 -2.84499,1.49924 -0.32676,-0.43319 -0.65223,-1.0917 -0.72328,-1.46335 -0.0711,-0.37164 -0.0196,-0.97196 0.11436,-1.33404 0.13394,-0.36208 0.92381,-1.3102 1.75528,-2.10693 0.83146,-0.79673 2.18867,-1.81703 3.016015,-2.26733 0.827354,-0.4503 2.424874,-1.05457 3.550054,-1.34283 1.36671,-0.35014 2.69031,-0.46392 3.98747,-0.34279 1.06792,0.0997 2.76482,0.48929 3.77089,0.86571 1.00607,0.37642 2.42398,1.14031 3.15091,1.69754 0.72693,0.55723 1.80012,1.70973 2.38486,2.56112 0.58475,0.85138 1.21068,2.09577 1.39097,2.76531 0.32779,1.21734 0.32779,1.21734 1.6848,0.90229 0.74635,-0.17327 2.653,-0.24343 4.237,-0.15589 1.71411,0.0947 3.63414,0.42683 4.74289,0.82037 1.02458,0.36367 2.8305,1.30449 4.01316,2.09072 1.18266,0.78623 2.73814,2.12667 3.45664,2.97876 0.71849,0.85209 1.79204,2.33703 2.38566,3.29986 0.59363,0.96283 1.44414,2.8237 1.89002,4.13526 0.78413,2.30649 0.87249,2.42076 2.6957,3.48611 1.03675,0.60579 2.58308,1.82191 3.43629,2.702483 0.85321,0.88057 2.05565,2.623822 2.67209,3.873893 0.61644,1.250071 1.28705,3.171812 1.49023,4.270537 0.36233,1.959322 0.41061,2.028305 2.51429,3.592616 1.38993,1.033564 2.66368,2.357794 3.6189,3.76232 0.81072,1.19206 1.77807,3.031383 2.14967,4.087383 0.4029,1.14495 0.74473,3.100771 0.84682,4.845077 0.14025,2.396213 0.0504,3.321928 -0.49716,5.12 -0.3676,1.207208 -1.17839,3.040369 -1.80177,4.073692 -0.62339,1.033323 -1.13342,1.969098 -1.13342,2.079499 0,0.110401 0.5757,1.352955 1.27933,2.761231 0.70363,1.408275 1.49563,3.418755 1.76,4.467733 0.26437,1.048977 0.48067,2.926722 0.48067,4.172772 0,1.24604 -0.21532,3.09218 -0.47848,4.10253 -0.26316,1.01034 -0.78518,2.43817 -1.16004,3.17296 -0.37485,0.73478 -1.45288,2.14462 -2.39561,3.13297 -1.64258,1.72208 -1.70095,1.84266 -1.39996,2.89216 0.17275,0.60233 0.31409,1.89797 0.31409,2.87918 0,0.98122 -0.21743,2.51618 -0.48317,3.41103 -0.30513,1.02749 -1.0113,2.2144 -1.91648,3.22118 -0.78833,0.87681 -2.08597,1.90098 -2.88364,2.27593 -0.79768,0.37495 -2.13902,0.82943 -2.98076,1.00995 -1.53044,0.32822 -1.53044,0.32822 -1.88533,2.40007 -0.19519,1.13951 -0.79534,3.01307 -1.33367,4.16346 -0.62062,1.32623 -1.66071,2.77353 -2.84233,3.95515 -1.02495,1.02495 -2.46465,2.17021 -3.19933,2.54501 -0.73467,0.37481 -2.16817,0.90716 -3.18553,1.18301 -1.01737,0.27585 -3.27941,0.5323 -5.02675,0.56988 -3.17698,0.0683 -3.17698,0.0683 -3.53075,1.81693 -0.19456,0.96173 -0.78032,2.5406 -1.30168,3.5086 -0.52136,0.968 -1.74052,2.55452 -2.70925,3.52561 -0.96874,0.97108 -2.63706,2.22659 -3.7074,2.79002 -1.07034,0.56342 -2.79259,1.2449 -3.82723,1.51439 -1.04113,0.27117 -3.17294,0.48531 -4.77394,0.47953 z m -0.16,-3.53184 c 0.97502,0.0123 2.62024,-0.19845 3.65604,-0.46824 1.0358,-0.2698 2.5895,-0.87491 3.45267,-1.3447 0.86316,-0.46979 2.34532,-1.69227 3.29368,-2.71661 1.20936,-1.30626 1.8707,-2.35547 2.21457,-3.51338 0.26965,-0.90802 0.49027,-2.56081 0.49027,-3.67286 0,-2.02192 0,-2.02192 1.46347,-2.02192 1.09592,0 1.43748,-0.11349 1.36,-0.45191 -0.0569,-0.24854 -2.11947,-2.62296 -4.58347,-5.27647 -4.48,-4.82457 -4.48,-4.82457 -12.56,-4.8281 l -8.080004,-0.004 1.3e-4,3.76 1.3e-4,3.76 7.759874,0.007 c 7.07713,0.007 7.87249,0.0629 9.03987,0.64 0.704,0.34805 1.46897,1.03113 1.69993,1.51797 0.23096,0.48683 0.32771,1.1757 0.215,1.53082 -0.11271,0.35512 -0.50883,0.92881 -0.88027,1.27485 -0.37143,0.34605 -0.85448,0.62918 -1.07343,0.62918 -0.21896,0 -0.49473,-0.30445 -0.61283,-0.67655 -0.14056,-0.44287 0.006,-0.97459 0.4233,-1.5395 0.63802,-0.86297 0.63802,-0.86297 -1.18267,-1.40346 -1.4156,-0.42024 -3.10763,-0.54049 -7.60486,-0.54049 -3.18129,0 -6.23885,0.0909 -6.79457,0.20208 -1.010404,0.20208 -1.010404,0.20208 -0.920004,3.6 0.0904,3.39792 0.0904,3.39792 2.028684,3.43587 1.82185,0.0357 1.97039,-0.018 2.47275,-0.89329 0.29396,-0.5122 1.04714,-1.14547 1.67373,-1.40728 1.01744,-0.42511 1.25301,-0.42203 2.20292,0.0287 0.585,0.27761 1.2276,0.86458 1.42798,1.30438 0.20039,0.43979 0.36434,1.16232 0.36434,1.60561 0,0.44329 -0.14827,1.08302 -0.32948,1.42163 -0.18122,0.33861 -0.75007,0.83314 -1.26411,1.09896 -0.51405,0.26583 -1.32077,0.48332 -1.79273,0.48332 -0.56616,0 -1.21748,-0.38105 -1.91441,-1.12 -0.9614,-1.01939 -1.21633,-1.12 -2.83778,-1.12 -1.01983,0 -1.781494,0.14226 -1.781494,0.33275 0,0.18301 0.281984,0.88547 0.626624,1.56102 0.34464,0.67556 1.30356,1.82414 2.13092,2.55242 0.82737,0.72827 2.16539,1.52778 2.97338,1.77668 0.808,0.2489 2.26683,0.46258 3.24185,0.47484 z m -2.41935,-5.73771 c 0.42399,0 1.17492,-0.35159 1.66874,-0.78132 0.86103,-0.74927 0.87774,-0.81816 0.40775,-1.68 -0.31266,-0.57332 -0.79931,-0.93479 -1.34418,-0.99841 -0.46974,-0.0548 -1.1492,0.0582 -1.5099,0.25126 -0.39586,0.21185 -0.65583,0.67198 -0.65583,1.16076 0,0.44538 0.14907,1.08831 0.33126,1.42874 0.18677,0.349 0.6675,0.61897 1.10216,0.61897 z m 26.92684,-16.32 c 0.30214,0 0.81269,-0.23832 1.13455,-0.5296 0.32185,-0.29128 0.58519,-0.86728 0.58519,-1.28 0,-0.41272 -0.29536,-1.04577 -0.65637,-1.40677 -0.45629,-0.45629 -0.87085,-0.59107 -1.36,-0.44215 -0.38699,0.11782 -0.95563,0.4355 -1.26363,0.70596 -0.308,0.27046 -0.56,0.69198 -0.56,0.9367 0,0.24472 0.35346,0.7984 0.78546,1.2304 0.432,0.432 1.03266,0.78546 1.3348,0.78546 z M 118.97356,85.550036 c 0.73273,0 1.1518,-0.200036 1.40321,-0.669805 0.19716,-0.368393 0.27021,-1.021486 0.16232,-1.451318 -0.11046,-0.440137 -0.56056,-0.920064 -1.0304,-1.098697 -0.63054,-0.23973 -1.01906,-0.196095 -1.59106,0.178695 -0.49501,0.324342 -0.75681,0.803276 -0.75681,1.384502 0,0.488743 0.1728,1.061423 0.384,1.272623 0.2112,0.2112 0.85414,0.384 1.42874,0.384 z m 15.48326,-0.3249 c 0.4488,0.0027 0.9888,-0.1679 1.2,-0.3791 0.2112,-0.2112 0.3818,-0.7512 0.3791,-1.2 -0.003,-0.4488 -0.13402,-1.02 -0.29184,-1.269333 -0.15783,-0.249334 -0.752,-0.453334 -1.3204,-0.453334 -0.64897,0 -1.20048,0.22818 -1.48242,0.613334 -0.26763,0.365596 -0.36834,0.935173 -0.24934,1.410128 0.10981,0.438237 0.36823,0.904032 0.57427,1.0351 0.20605,0.131067 0.74183,0.24051 1.19063,0.243205 z m -9.136,-33.595102 c 0.18568,0 0.65764,-0.22416 1.0488,-0.49814 0.40496,-0.28365 0.7112,-0.83481 0.7112,-1.28 0,-0.43002 -0.288,-1.06986 -0.64,-1.42186 -0.352,-0.352 -0.82396,-0.64 -1.0488,-0.64 -0.22484,0 -0.72884,0.22417 -1.12,0.49815 -0.45563,0.31914 -0.7112,0.83008 -0.7112,1.42185 0,0.59178 0.25557,1.10272 0.7112,1.42186 0.39116,0.27398 0.86312,0.49814 1.0488,0.49814 z m 17.05223,69.760006 c -0.96758,0 -1.47937,-0.21792 -2.19684,-0.93539 -0.55902,-0.55901 -0.93539,-1.27357 -0.93539,-1.77589 0,-0.46228 0.21749,-1.26109 0.48331,-1.77513 0.26583,-0.51404 0.76036,-1.08289 1.09897,-1.26411 0.33861,-0.18121 0.99227,-0.32948 1.45258,-0.32948 0.46031,0 1.24149,0.20921 1.73596,0.46491 0.49447,0.2557 1.07685,0.89419 1.29418,1.41886 0.2256,0.54466 0.30305,1.37324 0.1805,1.93119 -0.11805,0.53748 -0.583,1.26699 -1.03322,1.62114 -0.50581,0.39787 -1.30058,0.6439 -2.08005,0.6439 z m 0.76017,-1.30805 c 0.31512,-0.16864 0.72026,-0.58189 0.90031,-0.91833 0.21161,-0.39539 0.22068,-0.89237 0.0257,-1.40529 -0.16594,-0.43646 -0.60835,-0.89089 -0.98314,-1.00985 -0.37478,-0.11895 -1.02884,-0.12908 -1.45345,-0.0225 -0.48423,0.12153 -0.85106,0.50864 -0.98403,1.03842 -0.1166,0.46456 -0.0687,1.07437 0.10654,1.35513 0.17519,0.28075 0.65527,0.68115 1.06685,0.88976 0.49967,0.25326 0.9387,0.2774 1.32126,0.0727 z m -29.24573,-1.25195 c -17.633329,0 -17.846669,-0.008 -17.846669,-0.64 0,-0.63225 0.21334,-0.64 17.609749,-0.64 17.60975,0 17.60975,0 21.04,-3.29486 1.88664,-1.81218 3.763,-3.52386 4.16969,-3.80375 0.72063,-0.49593 0.72642,-0.54006 0.22759,-1.73392 -0.28152,-0.67378 -0.68627,-1.33589 -0.89944,-1.47136 -0.21317,-0.13547 -1.1979,-0.24852 -2.18828,-0.25121 -1.80069,-0.005 -1.80069,-0.005 -1.64011,1.41982 0.14289,1.26767 0.0531,1.53222 -0.81469,2.4 -0.71552,0.71552 -1.27359,0.97528 -2.09534,0.97528 -0.7349,0 -1.45489,-0.28174 -2.09373,-0.81929 -0.55256,-0.46494 -1.05643,-1.26076 -1.16501,-1.84 -0.19133,-1.02071 -0.19133,-1.02071 -16.17088,-0.92172 -15.979549,0.099 -15.979549,0.099 -15.979549,-0.72 0,-0.81899 0,-0.81899 16.440919,-0.81899 12.65757,0 16.68924,-0.095 17.52,-0.41298 0.74722,-0.28597 2.33868,-0.37626 5.17481,-0.29357 4.09572,0.11941 4.09572,0.11941 4.887,1.90863 0.4352,0.98406 0.94797,1.97802 1.13949,2.20878 0.27488,0.33122 0.75426,0.0331 2.27634,-1.41564 1.06046,-1.00937 2.20336,-2.44722 2.53976,-3.19522 0.3364,-0.748 0.71289,-1.35829 0.83666,-1.3562 0.12376,0.002 1.01702,0.21637 1.98502,0.4762 0.968,0.25982 1.87075,0.47411 2.0061,0.4762 0.13535,0.002 0.16992,-0.3202 0.0768,-0.7162 -0.0931,-0.396 -0.0436,-0.9126 0.11009,-1.148 0.15366,-0.2354 0.62309,-0.3794 1.04319,-0.32 0.54469,0.077 0.7911,0.34228 0.85895,0.92469 0.0601,0.51611 -0.15463,1.04275 -0.5835,1.43087 -0.49258,0.44578 -1.28637,0.64851 -2.89515,0.73942 -1.21907,0.0689 -2.21649,0.26935 -2.21649,0.44548 0,0.17613 -1.15101,1.45588 -2.5578,2.84389 -1.40678,1.388 -2.81078,2.52144 -3.12,2.51875 -0.30921,-0.003 -0.76948,-0.13606 -1.02282,-0.29635 -0.32246,-0.20403 -0.85403,-0.009 -1.77221,0.65046 -0.72137,0.51805 -2.59909,2.23541 -4.17271,3.81635 -2.86112,2.87444 -2.86112,2.87444 -20.70779,2.87444 z m 17.25355,-8.32 c 0.43002,0 1.06039,-0.14907 1.40082,-0.33126 0.34043,-0.18219 0.61896,-0.65867 0.61896,-1.05884 0,-0.40017 -0.18,-0.96322 -0.4,-1.25123 -0.22,-0.288 -0.76,-0.60995 -1.2,-0.71543 -0.46389,-0.11121 -1.05208,-0.007 -1.4,0.24744 -0.33,0.24158 -0.6,0.82355 -0.6,1.29329 0,0.46973 0.17963,1.0705 0.39918,1.33504 0.21955,0.26454 0.75102,0.48099 1.18104,0.48099 z m -4.25106,-11.532816 c -0.51104,-0.007 -1.32333,-0.226687 -1.80509,-0.488089 -0.48177,-0.261403 -0.95628,-0.795638 -1.05448,-1.187188 -0.17854,-0.711911 -0.17854,-0.711911 -14.08406,-0.622136 -13.905529,0.08978 -13.905529,0.08978 -13.905529,-0.726411 0,-0.816186 0,-0.816186 13.824109,-0.796517 13.82411,0.01967 13.82411,0.01967 14.24601,-0.785543 0.23204,-0.442868 0.69772,-0.952834 1.03485,-1.133259 0.33713,-0.180425 1.06882,-0.328045 1.62599,-0.328045 0.72633,0 1.32239,0.309347 2.10606,1.093021 1.04816,1.048156 1.20282,1.096817 3.76775,1.185466 2.67473,0.09245 2.67473,0.09245 3.79276,-1.093021 0.81547,-0.864646 1.38262,-1.185466 2.09571,-1.185466 0.58492,0 1.37316,0.332794 1.96221,0.828446 0.78377,0.659497 0.98455,1.078343 0.98455,2.053828 0,0.67396 -0.0894,1.458485 -0.19878,1.743389 -0.10932,0.284904 -0.60617,0.728682 -1.1041,0.986172 -0.49794,0.257491 -1.32346,0.468165 -1.8345,0.468165 -0.54276,0 -1.28128,-0.326336 -1.77589,-0.78472 -0.4657,-0.431597 -0.84673,-1.007597 -0.84673,-1.28 0,-0.408884 -0.48305,-0.49528 -2.76915,-0.49528 -2.76916,0 -2.76916,0 -3.95085,1.28 -0.86856,0.940822 -1.4279,1.276605 -2.11084,1.267188 z m -0.25203,-1.267188 c 0.40587,0 1.03236,-0.316022 1.39221,-0.702272 0.42401,-0.455125 0.58595,-0.933741 0.46015,-1.36 -0.10676,-0.36175 -0.42309,-0.837728 -0.70296,-1.057728 -0.27987,-0.22 -0.79399,-0.4 -1.14249,-0.4 -0.34851,0 -0.89698,0.238318 -1.21884,0.529596 -0.32186,0.291278 -0.5852,0.819939 -0.5852,1.174803 0,0.354864 0.23832,0.908546 0.5296,1.230404 0.29128,0.321858 0.86167,0.585197 1.26753,0.585197 z m 11.96287,0 c 0.64076,0 1.10498,-0.243784 1.44113,-0.756807 0.3702,-0.565007 0.41727,-0.96356 0.18571,-1.572618 -0.1706,-0.448696 -0.60642,-0.909837 -0.96851,-1.024757 -0.36208,-0.11492 -0.92447,-0.124474 -1.24977,-0.02123 -0.32529,0.103243 -0.76226,0.562635 -0.97104,1.02087 -0.30915,0.678496 -0.28709,0.974364 0.11881,1.593849 0.33859,0.516754 0.80155,0.760694 1.44367,0.760693 z m 9.07701,-5.76 c -1.08094,0 -1.61305,-0.186955 -2.19854,-0.772441 -0.42484,-0.424843 -0.86201,-1.129333 -0.97149,-1.565535 -0.11904,-0.474288 0.0129,-1.20298 0.32824,-1.812768 0.3054,-0.590584 0.98965,-1.212862 1.62604,-1.478759 0.95872,-0.400579 1.24294,-0.398835 2.23026,0.01369 0.77244,0.322748 1.28018,0.828589 1.6,1.594016 0.25767,0.616682 0.46848,1.330816 0.46848,1.586965 0,0.256149 -0.3728,0.908774 -0.82844,1.450278 -0.69688,0.828192 -1.05493,0.984552 -2.25455,0.984552 z m -0.18821,-0.96 c 0.31284,0 0.88884,-0.224165 1.28,-0.498145 0.39116,-0.27398 0.7112,-0.802642 0.7112,-1.174803 0,-0.372162 -0.23832,-0.939997 -0.52959,-1.261855 -0.29128,-0.321858 -0.86728,-0.585197 -1.28,-0.585197 -0.41273,0 -1.03841,0.288 -1.39041,0.64 -0.352,0.352 -0.64,0.856 -0.64,1.12 0,0.264 0.288,0.768 0.64,1.12 0.352,0.352 0.89596,0.64 1.2088,0.64 z m -0.31556,-11.52 c -0.69441,0 -1.27051,-0.310505 -1.98842,-1.071705 -0.97192,-1.030536 -1.20692,-1.104368 -6.11778,-1.922022 -2.80887,-0.467675 -5.4199,-0.849407 -5.80229,-0.848295 -0.44636,0.0013 -1.21964,-0.611768 -2.16,-1.712478 -0.80561,-0.942976 -1.46194,-1.914976 -1.45851,-2.16 0.003,-0.245025 0.98015,-1.270384 2.17051,-2.278575 1.19036,-1.008191 2.62401,-2.307389 3.18589,-2.887106 1.02161,-1.054031 1.02161,-1.054031 -3.14984,-2.886925 -2.2943,-1.008092 -4.30676,-1.832894 -4.47213,-1.832894 -0.16537,0 -0.30067,0.265682 -0.30067,0.590404 0,0.324722 -0.27682,0.840926 -0.61516,1.147119 -0.33834,0.306193 -1.1993,0.635064 -1.91325,0.730824 -0.90451,0.121321 -1.54114,0.01485 -2.09975,-0.351167 -0.44092,-0.288902 -0.89157,-0.883454 -1.00145,-1.321228 -0.18896,-0.752886 -0.32069,-0.795952 -2.43461,-0.795952 -1.75029,0 -2.41124,0.138761 -3.04846,0.64 -0.4475,0.352 -1.22816,0.64 -1.73482,0.64 -0.50665,0 -1.20596,-0.177848 -1.55403,-0.395218 -0.54211,-0.338558 -0.70466,-0.292681 -1.1338,0.32 -0.27553,0.39337 -0.78079,0.715218 -1.12281,0.715218 -0.4386,0 -0.62186,-0.220615 -0.62186,-0.748635 0,-0.474415 0.27435,-0.873639 0.749,-1.089901 0.6135,-0.279529 0.72201,-0.525088 0.59986,-1.357398 -0.082,-0.558873 0.0438,-1.376703 0.27968,-1.8174 0.23586,-0.440697 0.84043,-1.014115 1.3435,-1.274262 0.54886,-0.283826 1.276,-0.393634 1.81814,-0.274562 0.4969,0.109138 1.14271,0.462799 1.43512,0.785912 0.29241,0.323113 0.64,0.992594 0.77243,1.487737 0.22809,0.852869 0.34491,0.904036 2.21926,0.972027 1.80763,0.06557 2.05947,-0.0092 2.91614,-0.865874 0.71971,-0.719717 1.23083,-0.937644 2.1991,-0.937644 0.74649,0 1.57301,0.244173 2.02462,0.598123 0.41973,0.328967 2.76095,1.640299 5.20271,2.91407 4.43956,2.315947 4.43956,2.315947 5.23134,1.46204 0.43549,-0.469649 1.1627,-0.994928 1.61604,-1.167286 0.45333,-0.172358 1.22948,-0.224375 1.72475,-0.115594 0.49528,0.108782 1.19027,0.566149 1.54441,1.016371 0.35415,0.450222 0.6439,1.295136 0.6439,1.877586 0,0.658122 -0.29235,1.398876 -0.77229,1.956846 -0.63252,0.735348 -1.03185,0.897844 -2.2064,0.897844 -0.89486,0 -1.65783,-0.202456 -2.02906,-0.538416 -0.56598,-0.512208 -0.71949,-0.427942 -3.15359,1.731115 -1.40726,1.248242 -2.59755,2.363196 -2.64508,2.477675 -0.0475,0.114479 0.38447,0.733482 0.96,1.375562 1.01431,1.131598 1.18879,1.193735 5.68642,2.025081 2.552,0.471713 5.02144,0.923915 5.48764,1.004892 0.73435,0.127553 0.87674,0.01476 1.06534,-0.843941 0.11974,-0.545145 0.52634,-1.207352 0.90356,-1.47157 0.37723,-0.264219 1.2367,-0.480398 1.90994,-0.480398 0.91266,0 1.42373,0.215421 2.0088,0.846727 0.57795,0.623621 0.78472,1.20635 0.78472,2.211554 0,1.131196 -0.16853,1.50664 -0.98455,2.193273 -0.58905,0.495652 -1.37729,0.828446 -1.96221,0.828446 z m 0.14676,-1.305263 c 0.308,0.0139 0.848,-0.262737 1.2,-0.614737 0.352,-0.352 0.64,-0.880661 0.64,-1.174803 0,-0.294142 -0.23832,-0.798142 -0.52959,-1.12 -0.29128,-0.321858 -0.83128,-0.582992 -1.2,-0.580297 -0.36873,0.0027 -0.82885,0.110695 -1.0225,0.24 -0.19365,0.129305 -0.52272,0.5591 -0.73126,0.9551 -0.26638,0.505826 -0.28172,0.902081 -0.0516,1.332111 0.18017,0.336661 0.50924,0.685293 0.73126,0.774737 0.22201,0.08944 0.65566,0.173994 0.96366,0.187889 z m -8.37158,-11.174737 c 0.35951,0 0.93219,-0.149066 1.27262,-0.331259 0.39661,-0.212259 0.61896,-0.66943 0.61896,-1.272623 0,-0.644088 -0.24586,-1.102456 -0.77854,-1.451484 -0.6017,-0.39425 -0.92712,-0.430603 -1.43267,-0.160043 -0.35976,0.192542 -0.81165,0.644433 -1.0042,1.004201 -0.27056,0.505546 -0.2342,0.830965 0.16005,1.432666 0.28056,0.428198 0.80426,0.778542 1.16378,0.778542 z m -14.78962,-3.84 c 0.43495,0 1.05415,-0.238318 1.376,-0.529596 0.32186,-0.291278 0.5852,-0.838478 0.5852,-1.216 0,-0.377522 -0.1728,-0.859204 -0.384,-1.070404 -0.2112,-0.2112 -0.8304,-0.384 -1.376,-0.384 -0.5456,0 -1.1648,0.1728 -1.376,0.384 -0.2112,0.2112 -0.384,0.7584 -0.384,1.216 0,0.4576 0.1728,1.0048 0.384,1.216 0.2112,0.2112 0.73986,0.384 1.1748,0.384 z m -10.0388,-1.28 c 0.89373,0 1.20962,-0.166572 1.49225,-0.786892 0.28712,-0.63014 0.25241,-0.948865 -0.17423,-1.6 -0.331,-0.505167 -0.83016,-0.813108 -1.31802,-0.813108 -0.48786,0 -0.98702,0.307941 -1.31801,0.813108 -0.42664,0.651135 -0.46135,0.96986 -0.17424,1.6 0.28264,0.62032 0.59852,0.786892 1.49225,0.786892 z m -16.880959,5.379341 c -0.30854,0.05938 -0.63432,-0.0832 -0.72398,-0.316828 -0.0897,-0.233632 -0.12522,-5.822781 -0.079,-12.420325 0.084,-11.99555 0.084,-11.99555 2.75513,-13.59887 1.902349,-1.14186 2.787149,-1.88185 3.074169,-2.57108 0.22167,-0.53226 0.79042,-1.14426 1.26391,-1.36 0.47348,-0.21573 1.21183,-0.39224 1.64077,-0.39224 0.42894,0 1.21917,0.396 1.75606,0.88 0.61325,0.55284 1.04443,1.3098 1.15979,2.03607 0.15478,0.97447 0.0325,1.3252 -0.77837,2.23273 -0.80349,0.89926 -1.18388,1.07666 -2.3087,1.07666 -1.09269,0 -1.499,-0.17705 -2.15406,-0.9386 -0.80734,-0.93859 -0.80734,-0.93859 -2.84225,0.14864 -2.034899,1.08723 -2.034899,1.08723 -2.118689,13.101557 -0.0778,11.157331 -0.1238,12.022027 -0.64475,12.122286 z m 8.077819,-25.765803 c 0.3764,-0.0984 0.90765,-0.51974 1.18055,-0.93625 0.45023,-0.68713 0.44763,-0.83141 -0.028,-1.55729 -0.2883,-0.44 -0.77682,-0.8 -1.0856,-0.8 -0.30878,0 -0.88146,0.22417 -1.27262,0.49815 -0.39116,0.27398 -0.7112,0.77798 -0.7112,1.12 0,0.34202 0.27731,0.89917 0.61625,1.2381 0.39222,0.39223 0.86504,0.5512 1.30061,0.43729 z"
         style="fill:#34d399;fill-opacity:1"
         id="path1" />
    </g>
  </g>
</svg>
